<svg viewBox="0 0 386.26 512" xmlns="http://www.w3.org/2000/svg" xmlns:xlink="http://www.w3.org/1999/xlink"><style>:root&gt;svg{display:none}:root&gt;svg:target{display:block}</style><svg viewBox="0 0 386.257 386.257" id="arrow_down" xmlns="http://www.w3.org/2000/svg"><path d="M0 96.879l193.129 192.5 193.128-192.5z"/></svg><svg viewBox="0 0 386.258 386.258" id="arrow_left" xmlns="http://www.w3.org/2000/svg"><path d="M96.879 193.129l192.5 193.129V0z"/></svg><svg viewBox="0 0 386.258 386.258" id="arrow_right" xmlns="http://www.w3.org/2000/svg"><path d="M96.879 0v386.258l192.5-193.129z"/></svg><svg viewBox="0 0 386.257 386.257" id="arrow_up" xmlns="http://www.w3.org/2000/svg"><path d="M193.129 96.879L0 289.379h386.257z"/></svg><svg viewBox="0 0 20 20" id="basket" xmlns="http://www.w3.org/2000/svg"><path d="M19.825 4.546a.781.781 0 00-.606-.288H5.068l-.058-.533-.002-.017A4.274 4.274 0 00.78 0a.781.781 0 100 1.563 2.708 2.708 0 012.677 2.34l.928 8.532a2.347 2.347 0 00-1.378 2.174 2.346 2.346 0 002.344 2.344h.317A2.307 2.307 0 007.851 20a2.307 2.307 0 002.183-3.047h3.37A2.307 2.307 0 0015.586 20a2.307 2.307 0 002.305-2.305 2.307 2.307 0 00-2.305-2.304H5.352a.782.782 0 01-.782-.82c0-.431.35-.782.782-.782h9.973c1.387 0 2.66-.858 3.243-2.186a.781.781 0 00-1.43-.628c-.33.749-1.057 1.252-1.813 1.252h-9.39L5.238 5.82h13.02l-.383 1.833a.781.781 0 001.53.319l.579-2.773a.781.781 0 00-.159-.653zM15.5 17a.5.5 0 11-.001 1.001A.5.5 0 0115.5 17zm-8 0a.5.5 0 11-.001 1.001A.5.5 0 017.5 17z"/></svg><svg viewBox="0 0 284.929 284.929" id="chevron_down" xmlns="http://www.w3.org/2000/svg"><path d="M282.082 76.511l-14.274-14.273c-1.902-1.906-4.093-2.856-6.57-2.856-2.471 0-4.661.95-6.563 2.856L142.466 174.441 30.262 62.241c-1.903-1.906-4.093-2.856-6.567-2.856-2.475 0-4.665.95-6.567 2.856L2.856 76.515C.95 78.417 0 80.607 0 83.082c0 2.473.953 4.663 2.856 6.565l133.043 133.046c1.902 1.903 4.093 2.854 6.567 2.854s4.661-.951 6.562-2.854L282.082 89.647c1.902-1.903 2.847-4.093 2.847-6.565 0-2.475-.945-4.665-2.847-6.571z"/></svg><svg viewBox="0 0 284.935 284.936" id="chevron_left" xmlns="http://www.w3.org/2000/svg"><path d="M110.488 142.468L222.694 30.264c1.902-1.903 2.854-4.093 2.854-6.567s-.951-4.664-2.854-6.563L208.417 2.857C206.513.955 204.324 0 201.856 0c-2.475 0-4.664.955-6.567 2.857L62.24 135.9c-1.903 1.903-2.852 4.093-2.852 6.567 0 2.475.949 4.664 2.852 6.567l133.042 133.043c1.906 1.906 4.097 2.857 6.571 2.857 2.471 0 4.66-.951 6.563-2.857l14.277-14.267c1.902-1.903 2.851-4.094 2.851-6.57 0-2.472-.948-4.661-2.851-6.564L110.488 142.468z"/></svg><svg viewBox="0 0 284.935 284.936" id="chevron_right" xmlns="http://www.w3.org/2000/svg"><path d="M222.701 135.9L89.652 2.857C87.748.955 85.557 0 83.084 0c-2.474 0-4.664.955-6.567 2.857L62.244 17.133c-1.906 1.903-2.855 4.089-2.855 6.567 0 2.478.949 4.664 2.855 6.567l112.204 112.204L62.244 254.677c-1.906 1.903-2.855 4.093-2.855 6.564 0 2.477.949 4.667 2.855 6.57l14.274 14.271c1.903 1.905 4.093 2.854 6.567 2.854 2.473 0 4.663-.951 6.567-2.854l133.042-133.044c1.902-1.902 2.854-4.093 2.854-6.567s-.945-4.664-2.847-6.571z"/></svg><svg viewBox="0 0 284.929 284.929" id="chevron_up" xmlns="http://www.w3.org/2000/svg"><path d="M282.082 195.285L149.028 62.24c-1.901-1.903-4.088-2.856-6.562-2.856s-4.665.953-6.567 2.856L2.856 195.285C.95 197.191 0 199.378 0 201.853c0 2.474.953 4.664 2.856 6.566l14.272 14.271c1.903 1.903 4.093 2.854 6.567 2.854s4.664-.951 6.567-2.854l112.204-112.202 112.208 112.209c1.902 1.903 4.093 2.848 6.563 2.848 2.478 0 4.668-.951 6.57-2.848l14.274-14.277c1.902-1.902 2.847-4.093 2.847-6.566.001-2.476-.944-4.666-2.846-6.569z"/></svg><svg viewBox="0 0 357 357" id="close" xmlns="http://www.w3.org/2000/svg"><path d="M357 35.7L321.3 0 178.5 142.8 35.7 0 0 35.7l142.8 142.8L0 321.3 35.7 357l142.8-142.8L321.3 357l35.7-35.7-142.8-142.8z"/></svg><svg viewBox="0 0 64 64" id="delivery" xmlns="http://www.w3.org/2000/svg"><path d="M48.38 18.763A1.967 1.967 0 0046.416 17H40.75v-4.5c0-2.481-2.02-4.5-4.5-4.5h-7.5a4.505 4.505 0 00-4.5 4.5V17h-5.688a1.984 1.984 0 00-1.983 1.783l-3.569 34.99c-.058.57.13 1.14.517 1.563.384.422.933.664 1.505.664h34.884a2.076 2.076 0 002.074-2.285l-3.61-34.952zM25.75 12.5c0-1.654 1.346-3 3-3h7.5c1.654 0 3 1.346 3 3V17h-13.5v-4.5zm24.604 41.808a.596.596 0 01-.438.192H15.033a.535.535 0 01-.397-.175.51.51 0 01-.133-.4l3.569-34.99a.487.487 0 01.49-.435h5.688v3.888A2.244 2.244 0 0025 26.75a2.244 2.244 0 10.75-4.362V18.5h13.5v3.888A2.244 2.244 0 0040 26.75a2.244 2.244 0 10.75-4.362V18.5h5.666c.244 0 .447.18.471.417l3.61 34.95a.572.572 0 01-.143.441z"/><path d="M37 47.75h-9a.75.75 0 100 1.5h9a.75.75 0 100-1.5z"/></svg><svg viewBox="0 0 64 64" id="guarantee" xmlns="http://www.w3.org/2000/svg"><path d="M46.948 52.307l-5.46-19.07c2.916-2.61 4.762-6.39 4.762-10.612 0-7.87-6.38-14.25-14.25-14.25s-14.25 6.38-14.25 14.25c0 4.208 1.835 7.978 4.736 10.587l-5.434 18.979a.748.748 0 001.125.838l5.008-3.208 2.734 5.283a.75.75 0 001.39-.15l4.675-17.45L36.69 55.07a.749.749 0 001.39.151l2.735-5.282 5.008 3.207a.75.75 0 001.125-.838zM19.25 22.625c0-7.03 5.72-12.75 12.75-12.75s12.75 5.72 12.75 12.75-5.72 12.75-12.75 12.75-12.75-5.72-12.75-12.75zm7.112 30.07L24.139 48.4a.749.749 0 00-1.07-.286l-4.028 2.58 4.712-16.462a14.154 14.154 0 006.866 2.573l-4.257 15.89zm14.57-4.464a.752.752 0 00-1.07.287l-2.224 4.294-4.288-16.005a14.156 14.156 0 006.87-2.554l4.74 16.558-4.029-2.58z"/><path d="M32 31.625a9 9 0 100-18 9 9 0 000 18zm0-16.5c4.136 0 7.5 3.365 7.5 7.5 0 4.136-3.364 7.5-7.5 7.5s-7.5-3.364-7.5-7.5c0-4.135 3.364-7.5 7.5-7.5z"/></svg><svg aria-hidden="true" data-prefix="fas" data-icon="map-marker-alt" class="msvg-inline--fa mfa-map-marker-alt mfa-w-12" viewBox="0 0 384 512" id="location" xmlns="http://www.w3.org/2000/svg"><path fill="currentColor" d="M172.268 501.67C26.97 291.031 0 269.413 0 192 0 85.961 85.961 0 192 0s192 85.961 192 192c0 77.413-26.97 99.031-172.268 309.67-9.535 13.774-29.93 13.773-39.464 0zM192 272c44.183 0 80-35.817 80-80s-35.817-80-80-80-80 35.817-80 80 35.817 80 80 80z"/></svg><svg viewBox="0 0 64 64" id="pay" xmlns="http://www.w3.org/2000/svg"><path d="M52.1 17.317h-3.358L44.54 8.912a.77.77 0 00-1.033-.344l-7.58 3.789-6.088-4.221a.774.774 0 00-1.02.128l-7.87 9.053h-9.5a4.335 4.335 0 00-4.335 4.335v30.013A4.335 4.335 0 0011.449 56h40.65a4.335 4.335 0 004.336-4.335V21.652a4.335 4.335 0 00-4.335-4.335zm-5.08 0H29.453l14.054-7.027 3.513 7.027zM29.53 9.795l4.827 3.347-8.348 4.175H22.99l6.54-7.522zM52.1 54.46H11.449a2.798 2.798 0 01-2.795-2.795V21.652a2.798 2.798 0 012.795-2.795h40.65a2.798 2.798 0 012.796 2.795v5.566h-10.81c-4.225 0-7.662 3.443-7.662 7.676v1.363c0 4.232 3.437 7.674 7.661 7.674h10.81v7.734A2.798 2.798 0 0152.1 54.46zm2.795-25.701V42.39h-10.81c-3.376 0-6.122-2.752-6.122-6.134v-1.363c0-3.383 2.746-6.135 6.121-6.135h10.81z"/><path d="M41.015 35.347a3.083 3.083 0 003.08 3.08 3.083 3.083 0 003.08-3.08 3.083 3.083 0 00-3.08-3.08 3.083 3.083 0 00-3.08 3.08zm3.08-1.54a1.54 1.54 0 11-.001 3.079 1.54 1.54 0 01.001-3.079z"/></svg><svg viewBox="0 0 20 20" id="search" xmlns="http://www.w3.org/2000/svg"><path d="M16.197 15.02a9.16 9.16 0 10-1.177 1.177l3.559 3.56a.833.833 0 101.177-1.178l-3.559-3.56zm-1.74-.563A7.494 7.494 0 113.86 3.86a7.494 7.494 0 0110.597 10.597z"/></svg></svg>